<svg width="24" height="24" viewBox="0 0 24 24" fill="none" xmlns="http://www.w3.org/2000/svg">
<path d="M11 12.0006C11 12.5529 11.4477 13.0006 12 13.0006C12.5523 13.0006 13 12.5529 13 12.0006C13 11.4483 12.5523 11.0006 12 11.0006C11.4477 11.0006 11 11.4483 11 12.0006Z" stroke="#A0AEC0" stroke-width="2" stroke-linecap="round" stroke-linejoin="round"/>
<path d="M4 12.0006C4 12.5529 4.44772 13.0006 5 13.0006C5.55228 13.0006 6 12.5529 6 12.0006C6 11.4483 5.55228 11.0006 5 11.0006C4.44772 11.0006 4 11.4483 4 12.0006Z" stroke="#A0AEC0" stroke-width="2" stroke-linecap="round" stroke-linejoin="round"/>
<path d="M18 12.0006C18 12.5529 18.4477 13.0006 19 13.0006C19.5523 13.0006 20 12.5529 20 12.0006C20 11.4483 19.5523 11.0006 19 11.0006C18.4477 11.0006 18 11.4483 18 12.0006Z" stroke="#A0AEC0" stroke-width="2" stroke-linecap="round" stroke-linejoin="round"/>
</svg>
