<svg width="19" height="17" viewBox="0 0 19 17" fill="none" xmlns="http://www.w3.org/2000/svg">
<path d="M7.79364 13.5929H1.49292" stroke="#0CAF60" stroke-width="1.5" stroke-linecap="round" stroke-linejoin="round"/>
<path d="M10.6038 3.90042H16.9045" stroke="#0CAF60" stroke-width="1.5" stroke-linecap="round" stroke-linejoin="round"/>
<path fill-rule="evenodd" clip-rule="evenodd" d="M6.18967 3.84625C6.18967 2.5506 5.13151 1.5 3.82652 1.5C2.52154 1.5 1.46338 2.5506 1.46338 3.84625C1.46338 5.14191 2.52154 6.19251 3.82652 6.19251C5.13151 6.19251 6.18967 5.14191 6.18967 3.84625Z" stroke="#0CAF60" stroke-width="1.5" stroke-linecap="round" stroke-linejoin="round"/>
<path fill-rule="evenodd" clip-rule="evenodd" d="M17.4633 13.5538C17.4633 12.2581 16.406 11.2075 15.101 11.2075C13.7952 11.2075 12.7371 12.2581 12.7371 13.5538C12.7371 14.8494 13.7952 15.9 15.101 15.9C16.406 15.9 17.4633 14.8494 17.4633 13.5538Z" stroke="#0CAF60" stroke-width="1.5" stroke-linecap="round" stroke-linejoin="round"/>
</svg>
